<?xml version="1.0" encoding="utf-8" standalone="no"?>
<!DOCTYPE svg PUBLIC "-//W3C//DTD SVG 1.1//EN"
  "http://www.w3.org/Graphics/SVG/1.1/DTD/svg11.dtd">
<!-- Created with matplotlib (https://matplotlib.org/) -->
<svg height="216pt" version="1.1" viewBox="0 0 432 216" width="432pt" xmlns="http://www.w3.org/2000/svg" xmlns:xlink="http://www.w3.org/1999/xlink">
 <defs>
  <style type="text/css">
*{stroke-linecap:butt;stroke-linejoin:round;}
  </style>
 </defs>
 <g id="figure_1">
  <g id="patch_1">
   <path d="M 0 216 
L 432 216 
L 432 0 
L 0 0 
z
" style="fill:#ffffff;"/>
  </g>
  <g id="axes_1">
   <g id="patch_2">
    <path d="M 14.3 99.1 
L 210.6 99.1 
L 210.6 10.8 
L 14.3 10.8 
z
" style="fill:#ffffff;"/>
   </g>
   <g id="matplotlib.axis_1"/>
   <g id="matplotlib.axis_2"/>
   <g id="line2d_1">
    <path clip-path="url(#p8f9b8cc99f)" d="M 23.222727 18.275564 
L 24.416403 20.611258 
L 25.610079 23.488494 
L 26.803755 26.861898 
L 28.594269 32.734003 
L 30.384783 39.393122 
L 33.368972 51.590739 
L 38.143676 71.278511 
L 39.93419 77.861392 
L 41.724704 83.632626 
L 42.918379 86.926827 
L 44.112055 89.716735 
L 45.305731 91.958351 
L 46.499407 93.616323 
L 47.693083 94.664504 
L 48.289921 94.954373 
L 48.886759 95.086364 
L 49.483597 95.059954 
L 50.080435 94.875249 
L 50.677273 94.532977 
L 51.274111 94.034489 
L 52.467787 92.577343 
L 53.661462 90.526792 
L 54.855138 87.915173 
L 56.048814 84.783674 
L 57.839328 79.221733 
L 59.629842 72.799954 
L 62.017194 63.29665 
L 68.582411 36.350903 
L 70.372925 30.013918 
L 72.163439 24.560306 
L 73.357115 21.512237 
L 74.550791 18.991501 
L 75.744466 17.037852 
L 76.938142 15.6821 
L 77.53498 15.235496 
L 78.131818 14.945627 
L 78.728656 14.813636 
L 79.325494 14.840046 
L 79.922332 15.024751 
L 80.51917 15.367023 
L 81.116008 15.865511 
L 82.309684 17.322657 
L 83.50336 19.373208 
L 84.697036 21.984827 
L 85.890711 25.116326 
L 87.681225 30.678267 
L 89.471739 37.100046 
L 91.859091 46.60335 
L 98.424308 73.549097 
L 100.214822 79.886082 
L 102.005336 85.339694 
L 103.199012 88.387763 
L 104.392688 90.908499 
L 105.586364 92.862148 
L 106.78004 94.2179 
L 107.376877 94.664504 
L 107.973715 94.954373 
L 108.570553 95.086364 
L 109.167391 95.059954 
L 109.764229 94.875249 
L 110.361067 94.532977 
L 110.957905 94.034489 
L 112.151581 92.577343 
L 113.345257 90.526792 
L 114.538933 87.915173 
L 115.732609 84.783674 
L 117.523123 79.221733 
L 119.313636 72.799954 
L 121.700988 63.29665 
L 128.266206 36.350903 
L 130.056719 30.013918 
L 131.847233 24.560306 
L 133.040909 21.512237 
L 134.234585 18.991501 
L 135.428261 17.037852 
L 136.621937 15.6821 
L 137.218775 15.235496 
L 137.815613 14.945627 
L 138.412451 14.813636 
L 139.009289 14.840046 
L 139.606126 15.024751 
L 140.202964 15.367023 
L 140.799802 15.865511 
L 141.993478 17.322657 
L 143.187154 19.373208 
L 144.38083 21.984827 
L 145.574506 25.116326 
L 147.36502 30.678267 
L 149.155534 37.100046 
L 151.542885 46.60335 
L 158.108103 73.549097 
L 159.898617 79.886082 
L 161.68913 85.339694 
L 162.882806 88.387763 
L 164.076482 90.908499 
L 165.270158 92.862148 
L 166.463834 94.2179 
L 167.060672 94.664504 
L 167.65751 94.954373 
L 168.254348 95.086364 
L 168.851186 95.059954 
L 169.448024 94.875249 
L 170.044862 94.532977 
L 170.6417 94.034489 
L 171.835375 92.577343 
L 173.029051 90.526792 
L 174.222727 87.915173 
L 175.416403 84.783674 
L 177.206917 79.221733 
L 178.997431 72.799954 
L 181.384783 63.29665 
L 187.95 36.350903 
L 189.740514 30.013918 
L 191.531028 24.560306 
L 192.724704 21.512237 
L 193.918379 18.991501 
L 195.112055 17.037852 
L 196.305731 15.6821 
L 196.902569 15.235496 
L 197.499407 14.945627 
L 198.096245 14.813636 
L 198.693083 14.840046 
L 199.289921 15.024751 
L 199.886759 15.367023 
L 200.483597 15.865511 
L 201.677273 17.322657 
L 201.677273 17.322657 
" style="fill:none;stroke:#000000;stroke-linecap:square;stroke-width:1.5;"/>
   </g>
   <g id="patch_3">
    <path d="M 14.3 99.1 
L 14.3 10.8 
" style="fill:none;stroke:#000000;stroke-linecap:square;stroke-linejoin:miter;stroke-width:0.8;"/>
   </g>
   <g id="patch_4">
    <path d="M 210.6 99.1 
L 210.6 10.8 
" style="fill:none;stroke:#000000;stroke-linecap:square;stroke-linejoin:miter;stroke-width:0.8;"/>
   </g>
   <g id="patch_5">
    <path d="M 14.3 99.1 
L 210.6 99.1 
" style="fill:none;stroke:#000000;stroke-linecap:square;stroke-linejoin:miter;stroke-width:0.8;"/>
   </g>
   <g id="patch_6">
    <path d="M 14.3 10.8 
L 210.6 10.8 
" style="fill:none;stroke:#000000;stroke-linecap:square;stroke-linejoin:miter;stroke-width:0.8;"/>
   </g>
  </g>
  <g id="axes_2">
   <g id="patch_7">
    <path d="M 224.9 99.1 
L 421.2 99.1 
L 421.2 10.8 
L 224.9 10.8 
z
" style="fill:#ffffff;"/>
   </g>
   <g id="matplotlib.axis_3"/>
   <g id="matplotlib.axis_4"/>
   <g id="line2d_2">
    <path clip-path="url(#pe41642bced)" d="M 233.822727 54.95 
L 412.277273 54.95 
L 412.277273 54.95 
" style="fill:none;stroke:#000000;stroke-linecap:square;stroke-width:1.5;"/>
   </g>
   <g id="patch_8">
    <path d="M 224.9 99.1 
L 224.9 10.8 
" style="fill:none;stroke:#000000;stroke-linecap:square;stroke-linejoin:miter;stroke-width:0.8;"/>
   </g>
   <g id="patch_9">
    <path d="M 421.2 99.1 
L 421.2 10.8 
" style="fill:none;stroke:#000000;stroke-linecap:square;stroke-linejoin:miter;stroke-width:0.8;"/>
   </g>
   <g id="patch_10">
    <path d="M 224.9 99.1 
L 421.2 99.1 
" style="fill:none;stroke:#000000;stroke-linecap:square;stroke-linejoin:miter;stroke-width:0.8;"/>
   </g>
   <g id="patch_11">
    <path d="M 224.9 10.8 
L 421.2 10.8 
" style="fill:none;stroke:#000000;stroke-linecap:square;stroke-linejoin:miter;stroke-width:0.8;"/>
   </g>
  </g>
  <g id="axes_3">
   <g id="patch_12">
    <path d="M 14.3 201.7 
L 210.6 201.7 
L 210.6 113.4 
L 14.3 113.4 
z
" style="fill:#ffffff;"/>
   </g>
   <g id="matplotlib.axis_5"/>
   <g id="matplotlib.axis_6"/>
   <g id="line2d_3">
    <path clip-path="url(#pbfef2ae124)" d="M 23.222727 125.573173 
L 23.819565 118.2821 
L 24.416403 196.634489 
L 25.013241 165.89665 
L 25.610079 197.132977 
L 26.206917 195.177343 
L 26.803755 185.638102 
L 27.400593 195.177343 
L 27.997431 134.638608 
L 28.594269 179.765997 
L 29.191107 189.526827 
L 29.787945 127.716326 
L 30.384783 146.754169 
L 30.981621 148.382816 
L 31.578458 197.686364 
L 32.175296 175.399954 
L 32.772134 171.543483 
L 33.368972 138.950903 
L 33.96581 120.875564 
L 34.562648 195.462148 
L 35.159486 193.508499 
L 35.756324 151.685472 
L 36.95 121.591501 
L 37.546838 158.390737 
L 38.143676 128.867374 
L 38.740514 133.278267 
L 39.337352 117.835496 
L 39.93419 138.950903 
L 40.531028 150.855041 
L 41.127866 182.486082 
L 41.724704 135.334003 
L 42.321542 120.875564 
L 42.918379 149.20335 
L 43.515217 194.558351 
L 44.112055 189.526827 
L 44.708893 196.8179 
L 45.305731 181.821733 
L 45.902569 131.31832 
L 46.499407 195.462148 
L 47.096245 196.8179 
L 47.693083 187.383674 
L 48.289921 197.554373 
L 48.886759 124.112237 
L 49.483597 130.687639 
L 50.080435 185.638102 
L 50.677273 190.987763 
L 51.274111 118.465511 
L 51.870949 121.973208 
L 52.467787 121.973208 
L 53.064625 126.088494 
L 53.661462 168.345831 
L 54.2583 141.221489 
L 54.855138 180.461392 
L 55.451976 117.624751 
L 56.048814 164.244959 
L 56.645652 156.709263 
L 57.24249 192.316735 
L 57.839328 144.347593 
L 58.436166 189.011506 
L 59.033004 155.868895 
L 59.629842 136.753719 
L 60.22668 124.112237 
L 60.823518 117.967023 
L 61.420356 143.556517 
L 62.017194 141.221489 
L 62.614032 124.112237 
L 63.21087 136.753719 
L 63.807708 131.31832 
L 64.404545 173.106878 
L 65.001383 195.981752 
L 65.598221 141.993122 
L 66.195059 177.622584 
L 66.791897 120.875564 
L 67.388735 117.967023 
L 67.985573 191.888742 
L 68.582411 194.558351 
L 69.179249 170.752407 
L 69.776087 175.399954 
L 70.372925 137.477416 
L 70.969763 132.613918 
L 71.566601 117.413636 
L 72.163439 192.316735 
L 72.760277 132.613918 
L 73.357115 137.477416 
L 73.953953 197.264504 
L 74.550791 184.412361 
L 75.147628 133.278267 
L 75.744466 166.717184 
L 76.341304 183.78168 
L 76.938142 145.94677 
L 77.53498 176.149097 
L 78.131818 197.554373 
L 78.728656 117.967023 
L 79.325494 189.011506 
L 79.922332 169.15323 
L 80.51917 186.232626 
L 81.116008 195.981752 
L 81.712846 148.382816 
L 82.309684 187.939694 
L 82.906522 194.224436 
L 83.50336 197.475249 
L 84.100198 125.573173 
L 84.697036 145.94677 
L 85.293874 118.465511 
L 85.890711 171.543483 
L 87.084387 197.659954 
L 87.681225 173.878511 
L 88.278063 182.486082 
L 88.874901 119.637852 
L 89.471739 183.78168 
L 90.068577 194.558351 
L 90.665415 129.461898 
L 91.262253 170.752407 
L 91.859091 134.638608 
L 92.455929 197.659954 
L 93.052767 153.353687 
L 93.649605 149.20335 
L 94.246443 122.783265 
L 94.843281 196.216323 
L 95.440119 159.231105 
L 96.036957 161.746313 
L 96.633794 193.126792 
L 97.230632 118.2821 
L 97.82747 155.868895 
L 98.424308 169.15323 
L 99.021146 117.440046 
L 99.617984 118.2821 
L 100.214822 139.700046 
L 100.81166 178.346281 
L 101.408498 139.700046 
L 102.005336 117.440046 
L 102.602174 117.835496 
L 103.199012 139.700046 
L 103.79585 119.637852 
L 104.392688 125.573173 
L 104.989526 154.190739 
L 105.586364 173.106878 
L 106.183202 118.465511 
L 106.78004 150.855041 
L 107.376877 197.554373 
L 107.973715 193.508499 
L 108.570553 156.709263 
L 109.167391 179.765997 
L 109.764229 161.746313 
L 110.361067 117.413636 
L 110.957905 154.190739 
L 111.554743 154.190739 
L 112.151581 168.345831 
L 112.748419 190.987763 
L 113.345257 118.883677 
L 113.942095 180.461392 
L 114.538933 156.709263 
L 115.135771 124.584827 
L 115.732609 126.088494 
L 116.329447 120.541649 
L 116.926285 122.783265 
L 118.11996 195.177343 
L 119.313636 127.716326 
L 119.910474 196.634489 
L 120.507312 187.383674 
L 121.10415 191.888742 
L 121.700988 165.89665 
L 122.297826 173.106878 
L 122.894664 185.638102 
L 123.491502 160.909261 
L 124.08834 197.132977 
L 124.685178 123.211258 
L 125.282016 119.118248 
L 125.878854 192.316735 
L 126.475692 120.541649 
L 127.07253 117.545627 
L 127.669368 127.716326 
L 128.266206 190.987763 
L 128.863043 179.765997 
L 129.459881 145.94677 
L 130.056719 119.118248 
L 130.653557 197.475249 
L 131.250395 163.414528 
L 131.847233 193.126792 
L 132.444071 117.413636 
L 133.040909 175.399954 
L 133.637747 176.149097 
L 134.234585 187.939694 
L 134.831423 168.345831 
L 135.428261 166.717184 
L 136.025099 149.20335 
L 136.621937 197.686364 
L 137.218775 146.754169 
L 137.815613 181.821733 
L 138.412451 191.888742 
L 139.009289 178.346281 
L 139.606126 136.753719 
L 140.202964 196.216323 
L 140.799802 117.624751 
L 141.39664 171.543483 
L 141.993478 160.909261 
L 142.590316 166.717184 
L 143.187154 130.687639 
L 143.783992 193.508499 
L 144.38083 124.584827 
L 144.977668 184.412361 
L 145.574506 117.545627 
L 146.171344 196.8179 
L 146.768182 178.346281 
L 147.36502 143.556517 
L 147.961858 197.132977 
L 148.558696 194.224436 
L 149.155534 197.659954 
L 149.752372 159.231105 
L 150.349209 151.685472 
L 150.946047 141.993122 
L 151.542885 127.160306 
L 152.139723 153.353687 
L 152.736561 193.126792 
L 153.333399 190.515173 
L 153.930237 117.440046 
L 154.527075 195.981752 
L 155.123913 146.754169 
L 155.720751 194.224436 
L 156.317589 153.353687 
L 156.914427 123.211258 
L 157.511265 144.347593 
L 158.108103 173.878511 
L 158.704941 117.545627 
L 159.301779 164.244959 
L 159.898617 123.211258 
L 160.495455 119.922657 
L 161.092292 134.638608 
L 161.68913 158.390737 
L 162.285968 119.118248 
L 162.882806 197.264504 
L 163.479644 180.461392 
L 164.076482 127.160306 
L 164.67332 161.746313 
L 165.270158 137.477416 
L 165.866996 190.515173 
L 166.463834 132.613918 
L 167.060672 121.591501 
L 167.65751 141.993122 
L 168.254348 196.634489 
L 168.851186 119.922657 
L 169.448024 158.390737 
L 170.044862 187.383674 
L 170.6417 119.637852 
L 171.238538 183.78168 
L 171.835375 144.347593 
L 172.432213 126.088494 
L 173.029051 117.835496 
L 173.625889 127.160306 
L 174.222727 197.475249 
L 174.819565 159.231105 
L 175.416403 169.15323 
L 176.610079 117.624751 
L 177.206917 195.462148 
L 177.803755 131.31832 
L 178.400593 189.526827 
L 178.997431 121.591501 
L 180.191107 186.232626 
L 180.787945 148.382816 
L 181.384783 122.783265 
L 181.981621 138.950903 
L 182.578458 189.011506 
L 183.175296 121.973208 
L 183.772134 119.922657 
L 184.368972 128.867374 
L 184.96581 150.855041 
L 185.562648 190.515173 
L 186.159486 163.414528 
L 186.756324 177.622584 
L 187.353162 177.622584 
L 187.95 181.821733 
L 188.546838 133.278267 
L 189.143676 124.584827 
L 189.740514 118.883677 
L 190.337352 173.878511 
L 190.93419 118.883677 
L 191.531028 197.686364 
L 192.724704 128.867374 
L 193.321542 170.752407 
L 193.918379 135.334003 
L 194.515217 187.939694 
L 195.112055 176.149097 
L 195.708893 186.232626 
L 196.305731 129.461898 
L 197.499407 197.264504 
L 198.096245 155.868895 
L 198.693083 182.486082 
L 199.289921 143.556517 
L 199.886759 130.687639 
L 200.483597 120.541649 
L 201.080435 196.216323 
L 201.677273 129.461898 
L 201.677273 129.461898 
" style="fill:none;stroke:#000000;stroke-linecap:square;stroke-width:1.5;"/>
   </g>
   <g id="patch_13">
    <path d="M 14.3 201.7 
L 14.3 113.4 
" style="fill:none;stroke:#000000;stroke-linecap:square;stroke-linejoin:miter;stroke-width:0.8;"/>
   </g>
   <g id="patch_14">
    <path d="M 210.6 201.7 
L 210.6 113.4 
" style="fill:none;stroke:#000000;stroke-linecap:square;stroke-linejoin:miter;stroke-width:0.8;"/>
   </g>
   <g id="patch_15">
    <path d="M 14.3 201.7 
L 210.6 201.7 
" style="fill:none;stroke:#000000;stroke-linecap:square;stroke-linejoin:miter;stroke-width:0.8;"/>
   </g>
   <g id="patch_16">
    <path d="M 14.3 113.4 
L 210.6 113.4 
" style="fill:none;stroke:#000000;stroke-linecap:square;stroke-linejoin:miter;stroke-width:0.8;"/>
   </g>
  </g>
  <g id="axes_4">
   <g id="patch_17">
    <path d="M 224.9 201.7 
L 421.2 201.7 
L 421.2 113.4 
L 224.9 113.4 
z
" style="fill:#ffffff;"/>
   </g>
   <g id="matplotlib.axis_7"/>
   <g id="matplotlib.axis_8"/>
   <g id="line2d_4">
    <path clip-path="url(#p286e59e431)" d="M 233.822727 157.55 
L 412.277273 157.55 
L 412.277273 157.55 
" style="fill:none;stroke:#000000;stroke-linecap:square;stroke-width:1.5;"/>
   </g>
   <g id="patch_18">
    <path d="M 224.9 201.7 
L 224.9 113.4 
" style="fill:none;stroke:#000000;stroke-linecap:square;stroke-linejoin:miter;stroke-width:0.8;"/>
   </g>
   <g id="patch_19">
    <path d="M 421.2 201.7 
L 421.2 113.4 
" style="fill:none;stroke:#000000;stroke-linecap:square;stroke-linejoin:miter;stroke-width:0.8;"/>
   </g>
   <g id="patch_20">
    <path d="M 224.9 201.7 
L 421.2 201.7 
" style="fill:none;stroke:#000000;stroke-linecap:square;stroke-linejoin:miter;stroke-width:0.8;"/>
   </g>
   <g id="patch_21">
    <path d="M 224.9 113.4 
L 421.2 113.4 
" style="fill:none;stroke:#000000;stroke-linecap:square;stroke-linejoin:miter;stroke-width:0.8;"/>
   </g>
  </g>
 </g>
 <defs>
  <clipPath id="p8f9b8cc99f">
   <rect height="88.3" width="196.3" x="14.3" y="10.8"/>
  </clipPath>
  <clipPath id="pe41642bced">
   <rect height="88.3" width="196.3" x="224.9" y="10.8"/>
  </clipPath>
  <clipPath id="pbfef2ae124">
   <rect height="88.3" width="196.3" x="14.3" y="113.4"/>
  </clipPath>
  <clipPath id="p286e59e431">
   <rect height="88.3" width="196.3" x="224.9" y="113.4"/>
  </clipPath>
 </defs>
</svg>
