<?xml version="1.0" encoding="utf-8" standalone="no"?>
<!DOCTYPE svg PUBLIC "-//W3C//DTD SVG 1.1//EN"
  "http://www.w3.org/Graphics/SVG/1.1/DTD/svg11.dtd">
<!-- Created with matplotlib (https://matplotlib.org/) -->
<svg height="216pt" version="1.1" viewBox="0 0 432 216" width="432pt" xmlns="http://www.w3.org/2000/svg" xmlns:xlink="http://www.w3.org/1999/xlink">
 <defs>
  <style type="text/css">
*{stroke-linecap:butt;stroke-linejoin:round;}
  </style>
 </defs>
 <g id="figure_1">
  <g id="patch_1">
   <path d="M 0 216 
L 432 216 
L 432 0 
L 0 0 
z
" style="fill:#ffffff;"/>
  </g>
  <g id="axes_1">
   <g id="patch_2">
    <path d="M 14.3 99.1 
L 210.6 99.1 
L 210.6 10.8 
L 14.3 10.8 
z
" style="fill:#ffffff;"/>
   </g>
   <g id="matplotlib.axis_1"/>
   <g id="matplotlib.axis_2"/>
   <g id="line2d_1">
    <path clip-path="url(#p9241fa5273)" d="M 23.222727 19.50824 
L 24.416403 17.425839 
L 25.610079 15.935217 
L 26.206917 15.419545 
L 26.803755 15.059881 
L 27.400593 14.857646 
L 27.997431 14.813636 
L 28.594269 14.928027 
L 29.191107 15.200366 
L 29.787945 15.629579 
L 30.981621 16.951237 
L 32.175296 18.872159 
L 33.368972 21.362049 
L 34.562648 24.381642 
L 35.756324 27.883316 
L 37.546838 33.917061 
L 39.93419 43.080197 
L 44.112055 60.536447 
L 47.096245 72.546339 
L 48.886759 78.994973 
L 50.677273 84.591801 
L 51.870949 87.750422 
L 53.064625 90.39176 
L 54.2583 92.474161 
L 55.451976 93.964783 
L 56.048814 94.480455 
L 56.645652 94.840119 
L 57.24249 95.042354 
L 57.839328 95.086364 
L 58.436166 94.971973 
L 59.033004 94.699634 
L 59.629842 94.270421 
L 60.823518 92.948763 
L 62.017194 91.027841 
L 63.21087 88.537951 
L 64.404545 85.518358 
L 65.598221 82.016684 
L 67.388735 75.982939 
L 69.776087 66.819803 
L 73.953953 49.363553 
L 76.938142 37.353661 
L 78.728656 30.905027 
L 80.51917 25.308199 
L 81.712846 22.149578 
L 82.906522 19.50824 
L 84.100198 17.425839 
L 85.293874 15.935217 
L 85.890711 15.419545 
L 86.487549 15.059881 
L 87.084387 14.857646 
L 87.681225 14.813636 
L 88.278063 14.928027 
L 88.874901 15.200366 
L 89.471739 15.629579 
L 90.665415 16.951237 
L 91.859091 18.872159 
L 93.052767 21.362049 
L 94.246443 24.381642 
L 95.440119 27.883316 
L 97.230632 33.917061 
L 99.617984 43.080197 
L 103.79585 60.536447 
L 106.78004 72.546339 
L 108.570553 78.994973 
L 110.361067 84.591801 
L 111.554743 87.750422 
L 112.748419 90.39176 
L 113.942095 92.474161 
L 115.135771 93.964783 
L 115.732609 94.480455 
L 116.329447 94.840119 
L 116.926285 95.042354 
L 117.523123 95.086364 
L 118.11996 94.971973 
L 118.716798 94.699634 
L 119.313636 94.270421 
L 120.507312 92.948763 
L 121.700988 91.027841 
L 122.894664 88.537951 
L 124.08834 85.518358 
L 125.282016 82.016684 
L 127.07253 75.982939 
L 129.459881 66.819803 
L 133.637747 49.363553 
L 136.621937 37.353661 
L 138.412451 30.905027 
L 140.202964 25.308199 
L 141.39664 22.149578 
L 142.590316 19.50824 
L 143.783992 17.425839 
L 144.977668 15.935217 
L 145.574506 15.419545 
L 146.171344 15.059881 
L 146.768182 14.857646 
L 147.36502 14.813636 
L 147.961858 14.928027 
L 148.558696 15.200366 
L 149.155534 15.629579 
L 150.349209 16.951237 
L 151.542885 18.872159 
L 152.736561 21.362049 
L 153.930237 24.381642 
L 155.123913 27.883316 
L 156.914427 33.917061 
L 159.301779 43.080197 
L 163.479644 60.536447 
L 166.463834 72.546339 
L 168.254348 78.994973 
L 170.044862 84.591801 
L 171.238538 87.750422 
L 172.432213 90.39176 
L 173.625889 92.474161 
L 174.819565 93.964783 
L 175.416403 94.480455 
L 176.013241 94.840119 
L 176.610079 95.042354 
L 177.206917 95.086364 
L 177.803755 94.971973 
L 178.400593 94.699634 
L 178.997431 94.270421 
L 180.191107 92.948763 
L 181.384783 91.027841 
L 182.578458 88.537951 
L 183.772134 85.518358 
L 184.96581 82.016684 
L 186.756324 75.982939 
L 189.143676 66.819803 
L 193.321542 49.363553 
L 196.305731 37.353661 
L 198.096245 30.905027 
L 199.886759 25.308199 
L 201.080435 22.149578 
L 201.677273 20.761445 
L 201.677273 20.761445 
" style="fill:none;stroke:#000000;stroke-linecap:square;stroke-width:1.5;"/>
   </g>
   <g id="patch_3">
    <path d="M 14.3 99.1 
L 14.3 10.8 
" style="fill:none;stroke:#000000;stroke-linecap:square;stroke-linejoin:miter;stroke-width:0.8;"/>
   </g>
   <g id="patch_4">
    <path d="M 210.6 99.1 
L 210.6 10.8 
" style="fill:none;stroke:#000000;stroke-linecap:square;stroke-linejoin:miter;stroke-width:0.8;"/>
   </g>
   <g id="patch_5">
    <path d="M 14.3 99.1 
L 210.6 99.1 
" style="fill:none;stroke:#000000;stroke-linecap:square;stroke-linejoin:miter;stroke-width:0.8;"/>
   </g>
   <g id="patch_6">
    <path d="M 14.3 10.8 
L 210.6 10.8 
" style="fill:none;stroke:#000000;stroke-linecap:square;stroke-linejoin:miter;stroke-width:0.8;"/>
   </g>
  </g>
  <g id="axes_2">
   <g id="patch_7">
    <path d="M 224.9 99.1 
L 421.2 99.1 
L 421.2 10.8 
L 224.9 10.8 
z
" style="fill:#ffffff;"/>
   </g>
   <g id="matplotlib.axis_3"/>
   <g id="matplotlib.axis_4"/>
   <g id="line2d_2">
    <path clip-path="url(#p421d02d665)" d="M 233.822727 54.95 
L 412.277273 54.95 
L 412.277273 54.95 
" style="fill:none;stroke:#000000;stroke-linecap:square;stroke-width:1.5;"/>
   </g>
   <g id="patch_8">
    <path d="M 224.9 99.1 
L 224.9 10.8 
" style="fill:none;stroke:#000000;stroke-linecap:square;stroke-linejoin:miter;stroke-width:0.8;"/>
   </g>
   <g id="patch_9">
    <path d="M 421.2 99.1 
L 421.2 10.8 
" style="fill:none;stroke:#000000;stroke-linecap:square;stroke-linejoin:miter;stroke-width:0.8;"/>
   </g>
   <g id="patch_10">
    <path d="M 224.9 99.1 
L 421.2 99.1 
" style="fill:none;stroke:#000000;stroke-linecap:square;stroke-linejoin:miter;stroke-width:0.8;"/>
   </g>
   <g id="patch_11">
    <path d="M 224.9 10.8 
L 421.2 10.8 
" style="fill:none;stroke:#000000;stroke-linecap:square;stroke-linejoin:miter;stroke-width:0.8;"/>
   </g>
  </g>
  <g id="axes_3">
   <g id="patch_12">
    <path d="M 14.3 201.7 
L 210.6 201.7 
L 210.6 113.4 
L 14.3 113.4 
z
" style="fill:#ffffff;"/>
   </g>
   <g id="matplotlib.axis_5"/>
   <g id="matplotlib.axis_6"/>
   <g id="line2d_3">
    <path clip-path="url(#pc687109e98)" d="M 23.222727 171.804092 
L 23.819565 130.483316 
L 24.416403 118.229579 
L 25.013241 118.019545 
L 25.610079 197.440119 
L 26.206917 166.988669 
L 26.803755 191.137951 
L 27.400593 130.483316 
L 27.997431 163.136447 
L 28.594269 127.908199 
L 29.191107 195.548763 
L 29.787945 197.299634 
L 30.384783 175.146339 
L 30.981621 197.571973 
L 31.578458 160.629523 
L 32.175296 187.191801 
L 32.772134 181.594973 
L 33.368972 169.419803 
L 33.96581 177.376963 
L 34.562648 117.457646 
L 35.159486 122.10824 
L 35.756324 131.534288 
L 36.353162 117.659881 
L 36.95 147.025654 
L 37.546838 134.411848 
L 38.143676 192.451767 
L 38.740514 119.551237 
L 39.337352 197.686364 
L 39.93419 148.111331 
L 40.531028 154.470477 
L 41.724704 119.204863 
L 42.321542 184.616684 
L 42.918379 118.019545 
L 43.515217 120.438467 
L 44.112055 163.136447 
L 44.708893 182.70205 
L 45.305731 126.267159 
L 45.902569 176.394718 
L 46.499407 153.075606 
L 47.096245 169.419803 
L 47.693083 188.832841 
L 48.289921 191.738555 
L 48.886759 123.962049 
L 49.483597 120.438467 
L 50.677273 164.520286 
L 51.274111 197.299634 
L 51.870949 194.105094 
L 52.467787 155.589157 
L 53.064625 148.111331 
L 53.661462 191.137951 
L 54.2583 132.39795 
L 54.855138 197.642354 
L 55.451976 196.286029 
L 56.048814 168.074346 
L 56.645652 195.895137 
L 57.24249 186.424498 
L 57.839328 119.551237 
L 58.436166 118.535217 
L 59.033004 175.146339 
L 59.629842 118.813971 
L 60.22668 118.813971 
L 60.823518 117.800366 
L 61.420356 120.025839 
L 62.017194 165.621323 
L 62.614032 195.074161 
L 63.21087 148.111331 
L 63.807708 139.953661 
L 64.404545 140.967874 
L 65.001383 142.25373 
L 65.598221 195.074161 
L 66.195059 118.019545 
L 66.791897 122.10824 
L 67.388735 165.621323 
L 67.985573 145.680197 
L 68.582411 142.25373 
L 69.179249 120.025839 
L 69.776087 117.413636 
L 70.372925 160.629523 
L 70.969763 118.813971 
L 71.566601 122.648233 
L 72.163439 195.895137 
L 72.760277 187.191801 
L 73.357115 197.440119 
L 73.953953 140.967874 
L 74.550791 192.451767 
L 75.147628 125.408421 
L 75.744466 158.110446 
L 76.341304 183.565712 
L 76.938142 128.675502 
L 77.53498 117.800366 
L 78.131818 188.832841 
L 78.728656 179.529339 
L 79.325494 194.661533 
L 79.922332 120.994906 
L 80.51917 130.483316 
L 81.116008 150.579714 
L 81.712846 179.529339 
L 82.309684 176.394718 
L 82.906522 124.749578 
L 83.50336 174.132126 
L 84.100198 171.804092 
L 84.697036 122.648233 
L 85.293874 188.118358 
L 85.890711 197.299634 
L 86.487549 151.963553 
L 87.084387 150.579714 
L 87.681225 120.994906 
L 88.278063 160.629523 
L 88.874901 153.075606 
L 89.471739 117.800366 
L 90.068577 189.691579 
L 90.665415 190.350422 
L 91.262253 144.614166 
L 91.859091 197.642354 
L 92.455929 192.451767 
L 93.052767 135.570661 
L 93.649605 143.295908 
L 94.246443 125.408421 
L 94.843281 170.485834 
L 95.440119 151.963553 
L 96.036957 174.132126 
L 96.633794 170.485834 
L 97.230632 172.84627 
L 97.82747 136.517061 
L 98.424308 156.989554 
L 99.021146 185.433779 
L 99.617984 185.433779 
L 100.214822 138.705282 
L 100.81166 197.080455 
L 101.408498 155.589157 
L 102.005336 190.350422 
L 102.602174 196.564783 
L 103.199012 126.267159 
L 103.79585 193.627841 
L 104.392688 194.105094 
L 104.989526 139.953661 
L 105.586364 126.981642 
L 106.183202 119.204863 
L 106.78004 192.99176 
L 107.376877 187.191801 
L 107.973715 135.570661 
L 108.570553 120.994906 
L 109.167391 124.749578 
L 109.764229 181.594973 
L 110.361067 196.286029 
L 110.957905 117.528027 
L 111.554743 166.988669 
L 112.151581 197.080455 
L 112.748419 143.295908 
L 113.345257 186.424498 
L 113.942095 123.962049 
L 114.538933 185.433779 
L 115.135771 134.411848 
L 115.732609 194.105094 
L 116.329447 144.614166 
L 116.926285 196.286029 
L 117.523123 172.84627 
L 118.11996 192.99176 
L 118.716798 188.118358 
L 119.313636 191.738555 
L 119.910474 197.686364 
L 120.507312 182.70205 
L 121.10415 138.705282 
L 121.700988 133.505027 
L 122.297826 131.534288 
L 122.894664 156.989554 
L 123.491502 197.642354 
L 124.08834 159.510843 
L 124.685178 137.723037 
L 125.282016 127.908199 
L 125.878854 197.080455 
L 126.475692 118.229579 
L 127.07253 197.571973 
L 127.669368 153.075606 
L 128.266206 196.870421 
L 128.863043 125.408421 
L 129.459881 193.627841 
L 130.056719 186.424498 
L 130.653557 197.686364 
L 131.847233 129.666221 
L 132.444071 170.485834 
L 133.040909 176.394718 
L 133.637747 127.908199 
L 134.234585 151.963553 
L 134.831423 122.10824 
L 136.025099 180.688152 
L 136.621937 197.440119 
L 137.218775 164.520286 
L 137.815613 195.074161 
L 138.412451 193.627841 
L 139.009289 171.804092 
L 139.606126 137.723037 
L 140.202964 139.953661 
L 140.799802 191.738555 
L 141.39664 188.118358 
L 141.993478 133.505027 
L 142.590316 174.132126 
L 143.187154 121.472159 
L 143.783992 145.680197 
L 144.38083 136.517061 
L 144.977668 191.137951 
L 145.574506 149.478677 
L 146.171344 117.413636 
L 146.768182 117.659881 
L 147.36502 117.457646 
L 147.961858 195.895137 
L 148.558696 119.204863 
L 149.155534 120.438467 
L 149.752372 131.534288 
L 150.946047 166.988669 
L 151.542885 122.648233 
L 152.139723 129.666221 
L 152.736561 177.376963 
L 153.333399 194.661533 
L 153.930237 126.267159 
L 154.527075 183.565712 
L 155.123913 158.110446 
L 155.720751 147.025654 
L 156.317589 117.413636 
L 156.914427 195.548763 
L 157.511265 136.517061 
L 158.108103 168.074346 
L 158.704941 128.675502 
L 159.301779 117.528027 
L 159.898617 134.411848 
L 160.495455 189.691579 
L 161.092292 168.074346 
L 161.68913 175.146339 
L 162.285968 117.528027 
L 162.882806 121.472159 
L 163.479644 118.535217 
L 164.076482 123.361445 
L 164.67332 169.419803 
L 165.270158 138.705282 
L 165.866996 147.025654 
L 166.463834 179.529339 
L 167.060672 117.659881 
L 167.65751 189.691579 
L 168.254348 196.564783 
L 168.851186 126.981642 
L 169.448024 197.571973 
L 170.044862 118.229579 
L 170.6417 118.535217 
L 171.238538 124.749578 
L 171.835375 192.99176 
L 173.029051 159.510843 
L 173.625889 180.688152 
L 174.222727 180.688152 
L 174.819565 126.981642 
L 175.416403 182.70205 
L 176.013241 135.570661 
L 176.610079 188.832841 
L 177.206917 119.551237 
L 177.803755 133.505027 
L 178.400593 121.472159 
L 178.997431 132.39795 
L 179.594269 196.870421 
L 180.191107 162.024394 
L 180.787945 194.661533 
L 181.384783 140.967874 
L 181.981621 128.675502 
L 182.578458 184.616684 
L 183.772134 142.25373 
L 184.368972 196.564783 
L 184.96581 154.470477 
L 185.562648 178.582939 
L 186.159486 181.594973 
L 186.756324 164.520286 
L 187.353162 132.39795 
L 187.95 123.962049 
L 188.546838 154.470477 
L 189.143676 156.989554 
L 189.740514 195.548763 
L 190.337352 178.582939 
L 190.93419 123.361445 
L 191.531028 149.478677 
L 192.724704 162.024394 
L 193.321542 123.361445 
L 194.515217 165.621323 
L 195.112055 145.680197 
L 195.708893 183.565712 
L 196.305731 117.457646 
L 196.902569 196.870421 
L 197.499407 120.025839 
L 198.096245 159.510843 
L 198.693083 190.350422 
L 199.886759 178.582939 
L 200.483597 129.666221 
L 201.080435 158.110446 
L 201.677273 172.84627 
L 201.677273 172.84627 
" style="fill:none;stroke:#000000;stroke-linecap:square;stroke-width:1.5;"/>
   </g>
   <g id="patch_13">
    <path d="M 14.3 201.7 
L 14.3 113.4 
" style="fill:none;stroke:#000000;stroke-linecap:square;stroke-linejoin:miter;stroke-width:0.8;"/>
   </g>
   <g id="patch_14">
    <path d="M 210.6 201.7 
L 210.6 113.4 
" style="fill:none;stroke:#000000;stroke-linecap:square;stroke-linejoin:miter;stroke-width:0.8;"/>
   </g>
   <g id="patch_15">
    <path d="M 14.3 201.7 
L 210.6 201.7 
" style="fill:none;stroke:#000000;stroke-linecap:square;stroke-linejoin:miter;stroke-width:0.8;"/>
   </g>
   <g id="patch_16">
    <path d="M 14.3 113.4 
L 210.6 113.4 
" style="fill:none;stroke:#000000;stroke-linecap:square;stroke-linejoin:miter;stroke-width:0.8;"/>
   </g>
  </g>
  <g id="axes_4">
   <g id="patch_17">
    <path d="M 224.9 201.7 
L 421.2 201.7 
L 421.2 113.4 
L 224.9 113.4 
z
" style="fill:#ffffff;"/>
   </g>
   <g id="matplotlib.axis_7"/>
   <g id="matplotlib.axis_8"/>
   <g id="line2d_4">
    <path clip-path="url(#p3424245e6d)" d="M 233.822727 157.55 
L 412.277273 157.55 
L 412.277273 157.55 
" style="fill:none;stroke:#000000;stroke-linecap:square;stroke-width:1.5;"/>
   </g>
   <g id="patch_18">
    <path d="M 224.9 201.7 
L 224.9 113.4 
" style="fill:none;stroke:#000000;stroke-linecap:square;stroke-linejoin:miter;stroke-width:0.8;"/>
   </g>
   <g id="patch_19">
    <path d="M 421.2 201.7 
L 421.2 113.4 
" style="fill:none;stroke:#000000;stroke-linecap:square;stroke-linejoin:miter;stroke-width:0.8;"/>
   </g>
   <g id="patch_20">
    <path d="M 224.9 201.7 
L 421.2 201.7 
" style="fill:none;stroke:#000000;stroke-linecap:square;stroke-linejoin:miter;stroke-width:0.8;"/>
   </g>
   <g id="patch_21">
    <path d="M 224.9 113.4 
L 421.2 113.4 
" style="fill:none;stroke:#000000;stroke-linecap:square;stroke-linejoin:miter;stroke-width:0.8;"/>
   </g>
  </g>
 </g>
 <defs>
  <clipPath id="p9241fa5273">
   <rect height="88.3" width="196.3" x="14.3" y="10.8"/>
  </clipPath>
  <clipPath id="p421d02d665">
   <rect height="88.3" width="196.3" x="224.9" y="10.8"/>
  </clipPath>
  <clipPath id="pc687109e98">
   <rect height="88.3" width="196.3" x="14.3" y="113.4"/>
  </clipPath>
  <clipPath id="p3424245e6d">
   <rect height="88.3" width="196.3" x="224.9" y="113.4"/>
  </clipPath>
 </defs>
</svg>
